HIERARCHY
ROOT Hips
{
	OFFSET -0.001795 -0.223333 0.028219
	CHANNELS 6 Xposition Yposition Zposition Zrotation Yrotation Xrotation 
	JOINT LeftUpLeg
	{
		OFFSET 0.069520 -0.091406 -0.006815
		CHANNELS 3 Zrotation Yrotation Xrotation
		JOINT LeftLeg
		{
			OFFSET 0.034277 -0.375199 -0.004496
			CHANNELS 3 Zrotation Yrotation Xrotation
			JOINT LeftFoot
			{
				OFFSET -0.013596 -0.397961 -0.043693
				CHANNELS 3 Zrotation Yrotation Xrotation
				JOINT LeftToe
				{
					OFFSET 0.026358 -0.055791 0.119288
					CHANNELS 3 Zrotation Yrotation Xrotation
					End Site
					{
						OFFSET 0.000000 0.000000 0.000000
					}
				}
			}
		}
	}
	JOINT RightUpLeg
	{
		OFFSET -0.067670 -0.090522 -0.004320
		CHANNELS 3 Zrotation Yrotation Xrotation
		JOINT RightLeg
		{
			OFFSET -0.038290 -0.382569 -0.008850
			CHANNELS 3 Zrotation Yrotation Xrotation
			JOINT RightFoot
			{
				OFFSET 0.015774 -0.398415 -0.042312
				CHANNELS 3 Zrotation Yrotation Xrotation
				JOINT RightToe
				{
					OFFSET -0.025372 -0.048144 0.123348
					CHANNELS 3 Zrotation Yrotation Xrotation
					End Site
					{
						OFFSET 0.000000 0.000000 0.000000
					}
				}
			}
		}
	}
	JOINT Spine
	{
		OFFSET -0.002533 0.108963 -0.026696
		CHANNELS 3 Zrotation Yrotation Xrotation
		JOINT Spine1
		{
			OFFSET 0.005487 0.135180 0.001092
			CHANNELS 3 Zrotation Yrotation Xrotation
			JOINT Spine2
			{
				OFFSET 0.001457 0.052922 0.025425
				CHANNELS 3 Zrotation Yrotation Xrotation
				JOINT Neck
				{
					OFFSET -0.002778 0.213870 -0.042857
					CHANNELS 3 Zrotation Yrotation Xrotation
					JOINT Head
					{
						OFFSET 0.005152 0.064970 0.051349
						CHANNELS 3 Zrotation Yrotation Xrotation
						End Site
						{
							OFFSET 0.000000 0.000000 0.000000
						}
					}
				}
				JOINT LeftShoulder
				{
					OFFSET 0.078845 0.121749 -0.034090
					CHANNELS 3 Zrotation Yrotation Xrotation
					JOINT LeftArm
					{
						OFFSET 0.090977 0.030469 -0.008868
						CHANNELS 3 Zrotation Yrotation Xrotation
						JOINT LeftForeArm
						{
							OFFSET 0.259612 -0.012772 -0.027456
							CHANNELS 3 Zrotation Yrotation Xrotation
							JOINT LeftHand
							{
								OFFSET 0.249234 0.008986 -0.001171
								CHANNELS 3 Zrotation Yrotation Xrotation
								End Site
								{
									OFFSET 0.000000 0.000000 0.000000
								}
							}
						}
					}
				}
				JOINT RightShoulder
				{
					OFFSET -0.081759 0.118833 -0.038615
					CHANNELS 3 Zrotation Yrotation Xrotation
					JOINT RightArm
					{
						OFFSET -0.096012 0.032551 -0.009143
						CHANNELS 3 Zrotation Yrotation Xrotation
						JOINT RightForeArm
						{
							OFFSET -0.253742 -0.013329 -0.021401
							CHANNELS 3 Zrotation Yrotation Xrotation
							JOINT RightHand
							{
								OFFSET -0.255298 0.007772 -0.005559
								CHANNELS 3 Zrotation Yrotation Xrotation
								End Site
								{
									OFFSET 0.000000 0.000000 0.000000
								}
							}
						}
					}
				}
			}
		}
	}
}
MOTION
Frames: 5
Frame Time: 0.050000
0.089667 0.542888 0.136339 -22.721570 -10.888780 76.049713 12.095439 0.927856 -8.558159 -16.583809 24.614917 49.927493 -0.938683 4.214915 24.350943 0.000000 0.000000 0.000000 -2.870169 4.697109 -24.650575 19.795079 2.792312 69.440195 -6.757075 -18.872232 8.097558 0.000000 0.000000 0.000000 -2.726340 11.786043 62.397337 2.738732 2.280634 -43.762569 0.631971 9.055686 9.135813 12.207785 3.344144 -68.217914 0.000000 0.000000 0.000000 43.712581 5.451929 2.941081 2.565435 -38.229216 -1.728427 85.295182 2.356377 7.547795 0.000000 0.000000 0.000000 -18.913986 -4.898917 1.219493 8.486595 48.280215 -0.427086 -107.487951 31.350690 -32.186656 0.000000 0.000000 0.000000 
0.087874 0.529855 0.142312 -19.135822 -10.982632 76.506652 10.929025 0.742095 -9.757222 -13.755554 19.795077 47.558152 -0.770182 4.244221 26.031278 0.000000 0.000000 0.000000 -4.640654 4.034494 -22.216746 15.780625 3.803232 62.250733 -5.283000 -15.824946 7.072148 0.000000 0.000000 0.000000 -1.004222 9.956760 63.011969 1.165830 2.098452 -42.224433 -0.841184 6.784419 9.632228 11.763432 3.883315 -69.679303 0.000000 0.000000 0.000000 43.410614 4.592480 2.316915 -1.203304 -38.730633 -0.450832 90.730339 -0.063383 7.433135 0.000000 0.000000 0.000000 -21.273531 -5.872050 1.705551 8.946626 47.608761 -0.750431 -112.226149 25.562860 -28.241759 0.000000 0.000000 0.000000 
0.085591 0.516205 0.147611 -17.252706 -10.910426 76.280554 10.844062 0.829188 -11.167088 -10.745695 18.130980 50.397192 -3.244067 2.367346 30.247889 0.000000 0.000000 0.000000 -4.528413 3.318432 -19.129311 13.153870 4.847130 59.943342 -4.422295 -14.019529 7.639206 0.000000 0.000000 0.000000 -0.204093 9.017208 63.507667 0.647068 1.985426 -41.336986 -2.734786 6.150889 9.748428 12.883028 3.985092 -69.960672 0.000000 0.000000 0.000000 41.589961 4.880481 1.980538 -2.537052 -42.687107 0.076063 94.700729 -4.611643 3.520315 0.000000 0.000000 0.000000 -21.405824 -7.190239 1.505913 7.724223 47.926669 -1.225503 -115.092788 20.708177 -22.862115 0.000000 0.000000 0.000000 
0.083863 0.506430 0.150504 -14.565617 -10.031494 76.100836 11.700419 0.842909 -11.978314 -8.834724 17.828099 55.393961 -6.195925 -0.236313 31.162377 0.000000 0.000000 0.000000 -4.826135 2.743438 -16.057324 12.826116 4.202150 59.934216 -4.347833 -13.468231 7.777299 0.000000 0.000000 0.000000 0.846887 7.093602 63.762898 -0.378254 2.016672 -41.628444 -3.600645 5.510119 10.075282 12.495173 4.055470 -69.932103 0.000000 0.000000 0.000000 39.994173 4.461001 1.764757 -5.312336 -46.207656 1.256490 97.980524 -8.062447 0.291622 0.000000 0.000000 0.000000 -21.585206 -8.098587 1.405199 8.858923 48.718574 -0.811098 -114.813475 15.369899 -14.821104 0.000000 0.000000 0.000000 
0.082621 0.499496 0.152135 -14.693128 -10.726542 76.666139 11.307926 0.649595 -10.184471 -7.507398 19.408939 59.245463 -7.431848 -1.729977 30.223513 0.000000 0.000000 0.000000 -5.264713 2.560525 -14.677020 11.987092 5.519172 61.519144 -4.198490 -13.908505 12.059909 0.000000 0.000000 0.000000 0.306402 7.974814 63.408821 -1.066637 2.082832 -41.536738 -3.990096 5.971406 10.734965 11.135296 4.325587 -71.202650 0.000000 0.000000 0.000000 39.384327 4.128992 1.666086 -6.572886 -48.473076 1.938372 99.559985 -7.706747 0.624355 0.000000 0.000000 0.000000 -23.206827 -8.455965 1.613854 10.043182 48.703264 -0.370245 -113.097308 9.920203 -6.774920 0.000000 0.000000 0.000000 
